<svg width="25" height="21" viewBox="0 0 25 21" fill="none" xmlns="http://www.w3.org/2000/svg">
<path d="M12.5006 20.1776L18.6777 14.0005H25.0007V12.334H20.3446L22.2509 10.4277C24.4177 8.26089 24.4177 4.75059 22.2509 2.58417C20.0841 0.417332 16.5738 0.417332 14.4073 2.58417L12.5006 4.49007L10.5943 2.58375C8.42744 0.416908 4.91713 0.416908 2.75072 2.58375C0.58388 4.75059 0.58388 8.26089 2.75072 10.4273L4.65704 12.3336H0.000488281V14.0001H6.32348L12.5006 20.1776ZM12.5006 17.8235L7.7402 13.0631L10.0629 9.58382L13.2606 13.5837L15.7396 11.1047L17.229 13.0941L12.5006 17.8235ZM3.92767 9.2402C2.41705 7.71931 2.41705 5.27131 3.92767 3.75085C5.43828 2.24023 7.89655 2.24023 9.41701 3.75085L12.5006 6.84438L15.5946 3.75043C17.1052 2.23981 19.5634 2.23981 21.0839 3.75043C22.5945 5.26104 22.5945 7.71931 21.0839 9.23977L18.4275 11.8962L15.9274 8.56291L13.407 11.0836L9.93837 6.75038L6.53223 11.8544L3.92767 9.2402Z" fill="black"/>
</svg>
